<?xml version="1.0" standalone="no"?>
<!DOCTYPE svg PUBLIC "-//W3C//DTD SVG 20010904//EN"
 "http://www.w3.org/TR/2001/REC-SVG-20010904/DTD/svg10.dtd">
<svg version="1.0" xmlns="http://www.w3.org/2000/svg"
 width="293.000000pt" height="128.000000pt" viewBox="0 0 293.000000 128.000000"
 preserveAspectRatio="xMidYMid meet">
<metadata>
Created by potrace 1.14, written by Peter Selinger 2001-2017
</metadata>
<g transform="translate(0.000000,128.000000) scale(0.100000,-0.100000)"
fill="#000000" stroke="none">
<path d="M1484 1135 c-208 -33 -377 -86 -569 -182 -271 -134 -422 -281 -428
-412 -3 -75 40 -113 139 -125 l49 -6 -47 15 c-100 33 -127 119 -66 211 101
151 457 348 778 432 272 71 531 56 572 -33 14 -31 -4 -98 -44 -161 -16 -26
-27 -48 -24 -51 9 -9 97 113 107 150 20 74 -40 144 -142 166 -65 14 -222 12
-325 -4z"/>
<path d="M967 832 c-37 -41 -11 -85 56 -97 50 -10 70 -30 57 -56 -19 -35 -110
-17 -110 22 0 5 -7 9 -15 9 -41 0 3 -67 49 -76 62 -11 106 16 106 66 0 32 -16
44 -84 64 -26 7 -42 19 -44 30 -8 38 55 49 89 15 27 -27 42 -21 26 11 -10 21
-21 25 -63 28 -39 2 -54 -1 -67 -16z"/>
<path d="M1356 779 c-21 -17 -26 -29 -26 -65 0 -53 26 -84 70 -84 36 0 78 36
61 53 -8 8 -15 5 -27 -11 -19 -28 -51 -26 -72 6 l-14 22 61 0 c59 0 61 1 61
25 0 30 -41 75 -68 75 -11 0 -31 -9 -46 -21z"/>
<path d="M1519 781 c-19 -15 -21 -22 -12 -32 10 -10 14 -9 19 4 4 11 18 17 40
17 27 0 34 -4 34 -20 0 -15 -7 -20 -24 -20 -66 0 -104 -44 -70 -81 19 -22 45
-24 77 -8 16 9 22 9 25 0 2 -6 8 -11 13 -11 5 0 9 31 9 69 0 61 -3 72 -22 85
-30 21 -61 20 -89 -3z"/>
<path d="M1715 790 c-4 -6 -15 -8 -26 -5 -18 6 -19 1 -19 -75 0 -61 3 -81 13
-78 7 3 14 30 17 69 5 61 6 64 32 67 27 3 27 3 30 -64 2 -43 8 -69 16 -72 8
-3 12 12 12 51 0 71 7 87 35 87 29 0 38 -23 34 -87 -2 -30 1 -48 9 -51 9 -3
12 17 12 72 0 71 -2 77 -25 88 -19 8 -29 8 -47 -4 -20 -13 -25 -13 -36 -2 -15
16 -48 18 -57 4z"/>
<path d="M2246 779 c-35 -27 -37 -98 -4 -129 28 -26 72 -26 98 0 29 29 14 47
-16 19 -20 -19 -27 -21 -49 -11 -14 6 -25 18 -25 27 0 12 12 15 55 15 54 0 55
0 55 29 0 32 -39 71 -70 71 -10 0 -29 -9 -44 -21z"/>
</g>
</svg>
